<svg width="32" height="32" viewBox="0 0 32 32" fill="none" xmlns="http://www.w3.org/2000/svg">
<path d="M29 18H3C1.34375 18 0 19.3438 0 21V27C0 28.6562 1.34375 30 3 30H29C30.6562 30 32 28.6562 32 27V21C32 19.3438 30.6562 18 29 18ZM20 26C18.8988 26 18 25.1013 18 24C18 22.8987 18.8988 22 20 22C21.1012 22 22 22.8987 22 24C22 25.1013 21.1 26 20 26ZM26 26C24.8988 26 24 25.1013 24 24C24 22.8987 24.8988 22 26 22C27.1012 22 28 22.8987 28 24C28 25.1013 27.1 26 26 26Z" fill="#00E5FF"/>
<path opacity="0.4" d="M29 2H3C1.34375 2 0 3.34375 0 5V21C0 19.3438 1.34375 18 3 18H29C30.6562 18 32 19.3438 32 21V5C32 3.34375 30.6562 2 29 2ZM20 22C18.8988 22 18 22.8988 18 24C18 25.1012 18.8988 26 20 26C21.1012 26 22 25.1012 22 24C22 22.8988 21.1 22 20 22Z" fill="#00E5FF"/>
</svg>
