<svg width="36" height="30" viewBox="0 0 36 30" fill="none" xmlns="http://www.w3.org/2000/svg">
<g clip-path="url(#clip0_530_3727)">
<path d="M12.6 15C16.5769 15 19.8 11.642 19.8 7.5C19.8 3.35801 16.5769 0 12.6 0C8.62313 0 5.4 3.35801 5.4 7.5C5.4 11.642 8.62313 15 12.6 15ZM15.4519 17.8125H9.74813C4.36331 17.8125 0 22.3594 0 27.9668C0 29.0918 0.873 30 1.94962 30H23.2481C24.3281 30 25.2 29.0918 25.2 27.9668C25.2 22.3594 20.835 17.8125 15.4519 17.8125Z" fill="#651FFF"/>
<path opacity="0.4" d="M26.9496 18.75H22.7955C25.3802 20.959 27.0002 24.2637 27.0002 27.9668C27.0002 28.7168 26.7864 29.4082 26.4377 30H34.2002C35.1958 30 36.0002 29.1562 36.0002 28.0723C36.0002 22.9453 31.9727 18.75 26.9496 18.75ZM24.3002 15C27.7821 15 30.6002 12.0645 30.6002 8.4375C30.6002 4.81055 27.7821 1.875 24.3002 1.875C22.8877 1.875 21.5979 2.37627 20.5472 3.19395C21.1952 4.49004 21.6002 5.94141 21.6002 7.5C21.6002 9.58125 20.9291 11.4926 19.8232 13.0494C20.9646 14.25 22.5452 15 24.3002 15Z" fill="#651FFF"/>
</g>
<defs>
<clipPath id="clip0_530_3727">
<rect width="36" height="30" fill="white"/>
</clipPath>
</defs>
</svg>
